<mxfile host="app.diagrams.net" agent="Mozilla/5.0 (Windows NT 10.0; Win64; x64) AppleWebKit/537.36 (KHTML, like Gecko) Chrome/129.0.0.0 Safari/537.36" version="24.8.0">
  <diagram name="PÃ¡gina-1" id="e4IPxmp8NJZG-vX1DwcD">
    <mxGraphModel grid="1" page="1" gridSize="10" guides="1" tooltips="1" connect="1" arrows="1" fold="1" pageScale="1" pageWidth="827" pageHeight="1169" math="0" shadow="0">
      <root>
        <mxCell id="0" />
        <mxCell id="1" parent="0" />
        <mxCell id="gB0fGAAvfPBdsR0B6M6h-6" value="Client&lt;div&gt;(Web/Mobile)&lt;/div&gt;" style="rounded=0;whiteSpace=wrap;html=1;" vertex="1" parent="1">
          <mxGeometry x="40" y="160" width="140" height="60" as="geometry" />
        </mxCell>
        <mxCell id="gB0fGAAvfPBdsR0B6M6h-7" value="API Server&lt;div&gt;(Django REST Framework)&lt;br&gt;&lt;/div&gt;" style="rounded=0;whiteSpace=wrap;html=1;" vertex="1" parent="1">
          <mxGeometry x="340" y="160" width="190" height="60" as="geometry" />
        </mxCell>
        <mxCell id="gB0fGAAvfPBdsR0B6M6h-8" value="Database&lt;div&gt;(PostgreSQL)&lt;/div&gt;" style="rounded=0;whiteSpace=wrap;html=1;" vertex="1" parent="1">
          <mxGeometry x="625" y="30" width="160" height="60" as="geometry" />
        </mxCell>
        <mxCell id="gB0fGAAvfPBdsR0B6M6h-9" value="Cache&lt;div&gt;(Redis)&lt;/div&gt;" style="rounded=0;whiteSpace=wrap;html=1;" vertex="1" parent="1">
          <mxGeometry x="625" y="160" width="160" height="60" as="geometry" />
        </mxCell>
        <mxCell id="gB0fGAAvfPBdsR0B6M6h-10" value="&lt;div&gt;Task Queue&lt;/div&gt;&lt;div&gt;(Celery + Redis as broker)&lt;/div&gt;" style="rounded=0;whiteSpace=wrap;html=1;" vertex="1" parent="1">
          <mxGeometry x="600" y="290" width="210" height="60" as="geometry" />
        </mxCell>
        <mxCell id="gB0fGAAvfPBdsR0B6M6h-12" value="&lt;div&gt;Email Service&lt;/div&gt;&lt;div&gt;(SMTP)&lt;/div&gt;" style="rounded=0;whiteSpace=wrap;html=1;" vertex="1" parent="1">
          <mxGeometry x="917" y="290" width="160" height="60" as="geometry" />
        </mxCell>
        <mxCell id="gB0fGAAvfPBdsR0B6M6h-13" value="" style="endArrow=classic;html=1;rounded=0;exitX=1;exitY=0.5;exitDx=0;exitDy=0;" edge="1" parent="1" source="gB0fGAAvfPBdsR0B6M6h-6" target="gB0fGAAvfPBdsR0B6M6h-7">
          <mxGeometry width="50" height="50" relative="1" as="geometry">
            <mxPoint x="390" y="340" as="sourcePoint" />
            <mxPoint x="440" y="290" as="targetPoint" />
          </mxGeometry>
        </mxCell>
        <mxCell id="gB0fGAAvfPBdsR0B6M6h-15" value="HTTP Requests" style="text;html=1;align=center;verticalAlign=middle;resizable=0;points=[];autosize=1;strokeColor=none;fillColor=none;" vertex="1" parent="1">
          <mxGeometry x="200" y="160" width="110" height="30" as="geometry" />
        </mxCell>
        <mxCell id="gB0fGAAvfPBdsR0B6M6h-16" value="" style="endArrow=classic;html=1;rounded=0;exitX=0.5;exitY=0;exitDx=0;exitDy=0;edgeStyle=orthogonalEdgeStyle;entryX=0;entryY=0.5;entryDx=0;entryDy=0;" edge="1" parent="1" source="gB0fGAAvfPBdsR0B6M6h-7" target="gB0fGAAvfPBdsR0B6M6h-8">
          <mxGeometry width="50" height="50" relative="1" as="geometry">
            <mxPoint x="465" y="59.58000000000001" as="sourcePoint" />
            <mxPoint x="610" y="60" as="targetPoint" />
            <Array as="points">
              <mxPoint x="435" y="60" />
            </Array>
          </mxGeometry>
        </mxCell>
        <mxCell id="gB0fGAAvfPBdsR0B6M6h-18" value="" style="edgeStyle=segmentEdgeStyle;endArrow=classic;html=1;curved=0;rounded=0;endSize=8;startSize=8;sourcePerimeterSpacing=0;targetPerimeterSpacing=0;exitX=0.5;exitY=1;exitDx=0;exitDy=0;entryX=0;entryY=0.5;entryDx=0;entryDy=0;" edge="1" parent="1" source="gB0fGAAvfPBdsR0B6M6h-7" target="gB0fGAAvfPBdsR0B6M6h-10">
          <mxGeometry width="100" relative="1" as="geometry">
            <mxPoint x="280" y="290" as="sourcePoint" />
            <mxPoint x="570" y="329" as="targetPoint" />
            <Array as="points">
              <mxPoint x="435" y="320" />
            </Array>
          </mxGeometry>
        </mxCell>
        <mxCell id="gB0fGAAvfPBdsR0B6M6h-19" value="" style="endArrow=classic;html=1;rounded=0;exitX=1;exitY=0.5;exitDx=0;exitDy=0;" edge="1" parent="1" source="gB0fGAAvfPBdsR0B6M6h-7">
          <mxGeometry width="50" height="50" relative="1" as="geometry">
            <mxPoint x="540" y="190" as="sourcePoint" />
            <mxPoint x="625" y="190" as="targetPoint" />
          </mxGeometry>
        </mxCell>
        <mxCell id="gB0fGAAvfPBdsR0B6M6h-21" value="Read and Write Operations" style="text;html=1;align=center;verticalAlign=middle;resizable=0;points=[];autosize=1;strokeColor=none;fillColor=none;" vertex="1" parent="1">
          <mxGeometry x="440" y="30" width="170" height="30" as="geometry" />
        </mxCell>
        <mxCell id="gB0fGAAvfPBdsR0B6M6h-23" value="&lt;span style=&quot;text-align: left; text-wrap: wrap;&quot;&gt;Data Caching&lt;/span&gt;" style="text;html=1;align=center;verticalAlign=middle;resizable=0;points=[];autosize=1;strokeColor=none;fillColor=none;" vertex="1" parent="1">
          <mxGeometry x="525" y="158" width="100" height="30" as="geometry" />
        </mxCell>
        <mxCell id="gB0fGAAvfPBdsR0B6M6h-25" value="Submitting Asynchronous Tasks" style="text;html=1;align=center;verticalAlign=middle;resizable=0;points=[];autosize=1;strokeColor=none;fillColor=none;" vertex="1" parent="1">
          <mxGeometry x="410" y="320" width="190" height="30" as="geometry" />
        </mxCell>
        <mxCell id="gB0fGAAvfPBdsR0B6M6h-26" value="" style="endArrow=classic;html=1;rounded=0;exitX=1;exitY=0.5;exitDx=0;exitDy=0;" edge="1" parent="1" source="gB0fGAAvfPBdsR0B6M6h-10">
          <mxGeometry width="50" height="50" relative="1" as="geometry">
            <mxPoint x="822" y="320" as="sourcePoint" />
            <mxPoint x="917" y="320" as="targetPoint" />
          </mxGeometry>
        </mxCell>
        <mxCell id="gB0fGAAvfPBdsR0B6M6h-27" value="&lt;div style=&quot;text-align: left;&quot;&gt;&lt;span style=&quot;background-color: initial; text-wrap: wrap;&quot;&gt;Sending Emails&lt;/span&gt;&lt;/div&gt;" style="text;html=1;align=center;verticalAlign=middle;resizable=0;points=[];autosize=1;strokeColor=none;fillColor=none;" vertex="1" parent="1">
          <mxGeometry x="807" y="287" width="110" height="30" as="geometry" />
        </mxCell>
        <mxCell id="gB0fGAAvfPBdsR0B6M6h-28" value="CI/CD (GitHub Actions)" style="rounded=0;whiteSpace=wrap;html=1;" vertex="1" parent="1">
          <mxGeometry x="40" y="287" width="160" height="60" as="geometry" />
        </mxCell>
        <mxCell id="gB0fGAAvfPBdsR0B6M6h-29" value="" style="edgeStyle=segmentEdgeStyle;endArrow=classic;html=1;curved=0;rounded=0;endSize=8;startSize=8;sourcePerimeterSpacing=0;targetPerimeterSpacing=0;exitX=1;exitY=0.5;exitDx=0;exitDy=0;" edge="1" parent="1" source="gB0fGAAvfPBdsR0B6M6h-28" target="gB0fGAAvfPBdsR0B6M6h-7">
          <mxGeometry width="100" relative="1" as="geometry">
            <mxPoint x="350" y="260" as="sourcePoint" />
            <mxPoint x="390" y="230" as="targetPoint" />
            <Array as="points">
              <mxPoint x="390" y="317" />
            </Array>
          </mxGeometry>
        </mxCell>
        <mxCell id="gB0fGAAvfPBdsR0B6M6h-30" value="CI/CD Pipeline" style="text;html=1;align=center;verticalAlign=middle;resizable=0;points=[];autosize=1;strokeColor=none;fillColor=none;" vertex="1" parent="1">
          <mxGeometry x="245" y="287" width="100" height="30" as="geometry" />
        </mxCell>
        <mxCell id="gB0fGAAvfPBdsR0B6M6h-31" value="Automate Tests and Deployments" style="text;html=1;align=center;verticalAlign=middle;resizable=0;points=[];autosize=1;strokeColor=none;fillColor=none;" vertex="1" parent="1">
          <mxGeometry x="20" y="350" width="200" height="30" as="geometry" />
        </mxCell>
        <mxCell id="gB0fGAAvfPBdsR0B6M6h-32" value="User Interacts" style="text;html=1;align=center;verticalAlign=middle;resizable=0;points=[];autosize=1;strokeColor=none;fillColor=none;" vertex="1" parent="1">
          <mxGeometry x="60" y="130" width="100" height="30" as="geometry" />
        </mxCell>
      </root>
    </mxGraphModel>
  </diagram>
</mxfile>
